<svg xmlns="http://www.w3.org/2000/svg" xmlns:xlink="http://www.w3.org/1999/xlink" width="2000" zoomAndPan="magnify" viewBox="0 0 1500 1499.999933" height="2000" preserveAspectRatio="xMidYMid meet" version="1.0"><defs><clipPath id="7ad3f709c3"><path d="M 847 289 L 1372 289 L 1372 377 L 847 377 Z M 847 289 " clip-rule="nonzero"/></clipPath><clipPath id="138aba5b37"><path d="M 760.722656 -48.457031 L 1649.214844 435.503906 L 970.085938 1682.289062 L 81.59375 1198.328125 Z M 760.722656 -48.457031 " clip-rule="nonzero"/></clipPath><clipPath id="e0fa17caf6"><path d="M 760.722656 -48.457031 L 1649.214844 435.503906 L 970.085938 1682.289062 L 81.59375 1198.328125 Z M 760.722656 -48.457031 " clip-rule="nonzero"/></clipPath><clipPath id="e6587afa60"><path d="M 682 290 L 1372 290 L 1372 761 L 682 761 Z M 682 290 " clip-rule="nonzero"/></clipPath><clipPath id="7540eda063"><path d="M 760.722656 -48.457031 L 1649.214844 435.503906 L 970.085938 1682.289062 L 81.59375 1198.328125 Z M 760.722656 -48.457031 " clip-rule="nonzero"/></clipPath><clipPath id="a096c517e8"><path d="M 760.722656 -48.457031 L 1649.214844 435.503906 L 970.085938 1682.289062 L 81.59375 1198.328125 Z M 760.722656 -48.457031 " clip-rule="nonzero"/></clipPath><clipPath id="6239701ca7"><path d="M 291 571 L 1107 571 L 1107 1314 L 291 1314 Z M 291 571 " clip-rule="nonzero"/></clipPath><clipPath id="532370721a"><path d="M 760.722656 -48.457031 L 1649.214844 435.503906 L 970.085938 1682.289062 L 81.59375 1198.328125 Z M 760.722656 -48.457031 " clip-rule="nonzero"/></clipPath><clipPath id="76b3b9a3ae"><path d="M 760.722656 -48.457031 L 1649.214844 435.503906 L 970.085938 1682.289062 L 81.59375 1198.328125 Z M 760.722656 -48.457031 " clip-rule="nonzero"/></clipPath><clipPath id="23df145d9b"><path d="M 807 790 L 892 790 L 892 1089 L 807 1089 Z M 807 790 " clip-rule="nonzero"/></clipPath><clipPath id="85fe1f4a84"><path d="M 760.722656 -48.457031 L 1649.214844 435.503906 L 970.085938 1682.289062 L 81.59375 1198.328125 Z M 760.722656 -48.457031 " clip-rule="nonzero"/></clipPath><clipPath id="4547d6ae74"><path d="M 760.722656 -48.457031 L 1649.214844 435.503906 L 970.085938 1682.289062 L 81.59375 1198.328125 Z M 760.722656 -48.457031 " clip-rule="nonzero"/></clipPath><clipPath id="747c770732"><path d="M 963 501 L 1191 501 L 1191 1154 L 963 1154 Z M 963 501 " clip-rule="nonzero"/></clipPath><clipPath id="edfad21622"><path d="M 760.722656 -48.457031 L 1649.214844 435.503906 L 970.085938 1682.289062 L 81.59375 1198.328125 Z M 760.722656 -48.457031 " clip-rule="nonzero"/></clipPath><clipPath id="178685e68b"><path d="M 760.722656 -48.457031 L 1649.214844 435.503906 L 970.085938 1682.289062 L 81.59375 1198.328125 Z M 760.722656 -48.457031 " clip-rule="nonzero"/></clipPath><clipPath id="a9fc539aff"><path d="M 1051 362 L 1168 362 L 1168 641 L 1051 641 Z M 1051 362 " clip-rule="nonzero"/></clipPath><clipPath id="d2799c5319"><path d="M 760.722656 -48.457031 L 1649.214844 435.503906 L 970.085938 1682.289062 L 81.59375 1198.328125 Z M 760.722656 -48.457031 " clip-rule="nonzero"/></clipPath><clipPath id="57ce61f2ec"><path d="M 760.722656 -48.457031 L 1649.214844 435.503906 L 970.085938 1682.289062 L 81.59375 1198.328125 Z M 760.722656 -48.457031 " clip-rule="nonzero"/></clipPath><clipPath id="5809e47c71"><path d="M 734 218 L 1141 218 L 1141 377 L 734 377 Z M 734 218 " clip-rule="nonzero"/></clipPath><clipPath id="511e0480ac"><path d="M 760.722656 -48.457031 L 1649.214844 435.503906 L 970.085938 1682.289062 L 81.59375 1198.328125 Z M 760.722656 -48.457031 " clip-rule="nonzero"/></clipPath><clipPath id="8be6e717b3"><path d="M 760.722656 -48.457031 L 1649.214844 435.503906 L 970.085938 1682.289062 L 81.59375 1198.328125 Z M 760.722656 -48.457031 " clip-rule="nonzero"/></clipPath><clipPath id="5371b72bba"><path d="M 1246 332 L 1323 332 L 1323 603 L 1246 603 Z M 1246 332 " clip-rule="nonzero"/></clipPath><clipPath id="f6410fe8b1"><path d="M 760.722656 -48.457031 L 1649.214844 435.503906 L 970.085938 1682.289062 L 81.59375 1198.328125 Z M 760.722656 -48.457031 " clip-rule="nonzero"/></clipPath><clipPath id="1caa12c1bc"><path d="M 760.722656 -48.457031 L 1649.214844 435.503906 L 970.085938 1682.289062 L 81.59375 1198.328125 Z M 760.722656 -48.457031 " clip-rule="nonzero"/></clipPath><clipPath id="e092804d15"><path d="M 643 506 L 888 506 L 888 718 L 643 718 Z M 643 506 " clip-rule="nonzero"/></clipPath><clipPath id="9288e7ee0c"><path d="M 760.722656 -48.457031 L 1649.214844 435.503906 L 970.085938 1682.289062 L 81.59375 1198.328125 Z M 760.722656 -48.457031 " clip-rule="nonzero"/></clipPath><clipPath id="eda9ec38f0"><path d="M 760.722656 -48.457031 L 1649.214844 435.503906 L 970.085938 1682.289062 L 81.59375 1198.328125 Z M 760.722656 -48.457031 " clip-rule="nonzero"/></clipPath><clipPath id="3830374186"><path d="M 708 699 L 886 699 L 886 998 L 708 998 Z M 708 699 " clip-rule="nonzero"/></clipPath><clipPath id="09ff656932"><path d="M 760.722656 -48.457031 L 1649.214844 435.503906 L 970.085938 1682.289062 L 81.59375 1198.328125 Z M 760.722656 -48.457031 " clip-rule="nonzero"/></clipPath><clipPath id="e67af1824a"><path d="M 760.722656 -48.457031 L 1649.214844 435.503906 L 970.085938 1682.289062 L 81.59375 1198.328125 Z M 760.722656 -48.457031 " clip-rule="nonzero"/></clipPath><clipPath id="05402b3d6f"><path d="M 260 870 L 637 870 L 637 998 L 260 998 Z M 260 870 " clip-rule="nonzero"/></clipPath><clipPath id="cd1d6cb529"><path d="M 760.722656 -48.457031 L 1649.214844 435.503906 L 970.085938 1682.289062 L 81.59375 1198.328125 Z M 760.722656 -48.457031 " clip-rule="nonzero"/></clipPath><clipPath id="2eef59e6e4"><path d="M 760.722656 -48.457031 L 1649.214844 435.503906 L 970.085938 1682.289062 L 81.59375 1198.328125 Z M 760.722656 -48.457031 " clip-rule="nonzero"/></clipPath><clipPath id="b7d40b28c2"><path d="M 637 986 L 833 986 L 833 1158 L 637 1158 Z M 637 986 " clip-rule="nonzero"/></clipPath><clipPath id="32585851a2"><path d="M 760.722656 -48.457031 L 1649.214844 435.503906 L 970.085938 1682.289062 L 81.59375 1198.328125 Z M 760.722656 -48.457031 " clip-rule="nonzero"/></clipPath><clipPath id="6623440190"><path d="M 760.722656 -48.457031 L 1649.214844 435.503906 L 970.085938 1682.289062 L 81.59375 1198.328125 Z M 760.722656 -48.457031 " clip-rule="nonzero"/></clipPath><clipPath id="ad1aef17c4"><path d="M 822 995 L 922 995 L 922 1243 L 822 1243 Z M 822 995 " clip-rule="nonzero"/></clipPath><clipPath id="fa654b0462"><path d="M 760.722656 -48.457031 L 1649.214844 435.503906 L 970.085938 1682.289062 L 81.59375 1198.328125 Z M 760.722656 -48.457031 " clip-rule="nonzero"/></clipPath><clipPath id="955c368b38"><path d="M 760.722656 -48.457031 L 1649.214844 435.503906 L 970.085938 1682.289062 L 81.59375 1198.328125 Z M 760.722656 -48.457031 " clip-rule="nonzero"/></clipPath><clipPath id="2143863700"><path d="M 933 707 L 1145 707 L 1145 897 L 933 897 Z M 933 707 " clip-rule="nonzero"/></clipPath><clipPath id="bfe8971654"><path d="M 760.722656 -48.457031 L 1649.214844 435.503906 L 970.085938 1682.289062 L 81.59375 1198.328125 Z M 760.722656 -48.457031 " clip-rule="nonzero"/></clipPath><clipPath id="15ee9c6087"><path d="M 760.722656 -48.457031 L 1649.214844 435.503906 L 970.085938 1682.289062 L 81.59375 1198.328125 Z M 760.722656 -48.457031 " clip-rule="nonzero"/></clipPath><clipPath id="7997459f0a"><path d="M 1144 726 L 1347 726 L 1347 996 L 1144 996 Z M 1144 726 " clip-rule="nonzero"/></clipPath><clipPath id="3b8ad247a9"><path d="M 760.722656 -48.457031 L 1649.214844 435.503906 L 970.085938 1682.289062 L 81.59375 1198.328125 Z M 760.722656 -48.457031 " clip-rule="nonzero"/></clipPath><clipPath id="fb27e609ff"><path d="M 760.722656 -48.457031 L 1649.214844 435.503906 L 970.085938 1682.289062 L 81.59375 1198.328125 Z M 760.722656 -48.457031 " clip-rule="nonzero"/></clipPath><clipPath id="f760c18e81"><path d="M 489 989 L 660 989 L 660 1310 L 489 1310 Z M 489 989 " clip-rule="nonzero"/></clipPath><clipPath id="c335e0dbc9"><path d="M 760.722656 -48.457031 L 1649.214844 435.503906 L 970.085938 1682.289062 L 81.59375 1198.328125 Z M 760.722656 -48.457031 " clip-rule="nonzero"/></clipPath><clipPath id="fa6fb162da"><path d="M 760.722656 -48.457031 L 1649.214844 435.503906 L 970.085938 1682.289062 L 81.59375 1198.328125 Z M 760.722656 -48.457031 " clip-rule="nonzero"/></clipPath><clipPath id="6addd3cdd4"><path d="M 210 965 L 632 965 L 632 1112 L 210 1112 Z M 210 965 " clip-rule="nonzero"/></clipPath><clipPath id="7c2be37861"><path d="M 760.722656 -48.457031 L 1649.214844 435.503906 L 970.085938 1682.289062 L 81.59375 1198.328125 Z M 760.722656 -48.457031 " clip-rule="nonzero"/></clipPath><clipPath id="d75de2d7b4"><path d="M 760.722656 -48.457031 L 1649.214844 435.503906 L 970.085938 1682.289062 L 81.59375 1198.328125 Z M 760.722656 -48.457031 " clip-rule="nonzero"/></clipPath><clipPath id="514a47b5f1"><path d="M 1117 724 L 1215 724 L 1215 1100 L 1117 1100 Z M 1117 724 " clip-rule="nonzero"/></clipPath><clipPath id="2110d099a1"><path d="M 760.722656 -48.457031 L 1649.214844 435.503906 L 970.085938 1682.289062 L 81.59375 1198.328125 Z M 760.722656 -48.457031 " clip-rule="nonzero"/></clipPath><clipPath id="194c1dd32f"><path d="M 760.722656 -48.457031 L 1649.214844 435.503906 L 970.085938 1682.289062 L 81.59375 1198.328125 Z M 760.722656 -48.457031 " clip-rule="nonzero"/></clipPath><clipPath id="d25cda1e0e"><path d="M 720 1001 L 858 1001 L 858 1401 L 720 1401 Z M 720 1001 " clip-rule="nonzero"/></clipPath><clipPath id="ed0f11b3b8"><path d="M 760.722656 -48.457031 L 1649.214844 435.503906 L 970.085938 1682.289062 L 81.59375 1198.328125 Z M 760.722656 -48.457031 " clip-rule="nonzero"/></clipPath><clipPath id="61db535c82"><path d="M 760.722656 -48.457031 L 1649.214844 435.503906 L 970.085938 1682.289062 L 81.59375 1198.328125 Z M 760.722656 -48.457031 " clip-rule="nonzero"/></clipPath><clipPath id="14ee0ba947"><path d="M 487 629 L 883 629 L 883 741 L 487 741 Z M 487 629 " clip-rule="nonzero"/></clipPath><clipPath id="c79da09a13"><path d="M 760.722656 -48.457031 L 1649.214844 435.503906 L 970.085938 1682.289062 L 81.59375 1198.328125 Z M 760.722656 -48.457031 " clip-rule="nonzero"/></clipPath><clipPath id="1adabf3422"><path d="M 760.722656 -48.457031 L 1649.214844 435.503906 L 970.085938 1682.289062 L 81.59375 1198.328125 Z M 760.722656 -48.457031 " clip-rule="nonzero"/></clipPath><clipPath id="c5b49d96fe"><path d="M 837 342 L 1147 342 L 1147 603 L 837 603 Z M 837 342 " clip-rule="nonzero"/></clipPath><clipPath id="9c846520ff"><path d="M 760.722656 -48.457031 L 1649.214844 435.503906 L 970.085938 1682.289062 L 81.59375 1198.328125 Z M 760.722656 -48.457031 " clip-rule="nonzero"/></clipPath><clipPath id="e6b9f5d5d8"><path d="M 760.722656 -48.457031 L 1649.214844 435.503906 L 970.085938 1682.289062 L 81.59375 1198.328125 Z M 760.722656 -48.457031 " clip-rule="nonzero"/></clipPath></defs><g clip-path="url(#7ad3f709c3)"><g clip-path="url(#138aba5b37)"><g clip-path="url(#e0fa17caf6)"><path fill="#1a3b04" d="M 847.710938 339.652344 C 1015.875 391.621094 1203.476562 374.324219 1358.101562 291.167969 C 1368.714844 285.292969 1377.851562 302.183594 1366.914062 307.792969 C 1206.703125 386.878906 1015.792969 398.21875 847.710938 339.652344 Z M 847.710938 339.652344 " fill-opacity="1" fill-rule="nonzero"/></g></g></g><g clip-path="url(#e6587afa60)"><g clip-path="url(#7540eda063)"><g clip-path="url(#a096c517e8)"><path fill="#1a3b04" d="M 1369.652344 305.515625 C 1192.097656 531.355469 980.765625 728.128906 682.800781 760.929688 C 893.410156 732.382812 1082.328125 613.796875 1220.527344 455.886719 C 1267.558594 403.832031 1311.261719 348.765625 1355.070312 293.671875 C 1362.511719 284.015625 1377.746094 296.082031 1369.6875 305.53125 Z M 1369.652344 305.515625 " fill-opacity="1" fill-rule="nonzero"/></g></g></g><g clip-path="url(#6239701ca7)"><g clip-path="url(#532370721a)"><g clip-path="url(#76b3b9a3ae)"><path fill="#1a3b04" d="M 1106.824219 577.871094 C 980.597656 712.3125 849.066406 843.996094 697.007812 949.414062 C 620.746094 1001.484375 535.128906 1038.5625 466.277344 1101.179688 C 396.226562 1161.042969 336.949219 1233.375 291.054688 1313.378906 C 336.253906 1232.996094 395.015625 1160.039062 464.757812 1099.40625 C 533.007812 1036.246094 618.777344 998.097656 694.378906 945.582031 C 845.058594 839.242188 975.207031 706.722656 1099.976562 571.570312 C 1099.976562 571.570312 1106.824219 577.871094 1106.824219 577.871094 Z M 1106.824219 577.871094 " fill-opacity="1" fill-rule="nonzero"/></g></g></g><g clip-path="url(#23df145d9b)"><g clip-path="url(#85fe1f4a84)"><g clip-path="url(#4547d6ae74)"><path fill="#1a3b04" d="M 891.945312 792.25 L 807.816406 1088.429688 L 886.042969 790.660156 Z M 891.945312 792.25 " fill-opacity="1" fill-rule="nonzero"/></g></g></g><g clip-path="url(#747c770732)"><g clip-path="url(#edfad21622)"><g clip-path="url(#178685e68b)"><path fill="#1a3b04" d="M 1190.648438 501.773438 C 1186.824219 559.757812 1178.320312 617.371094 1165.320312 673.953125 C 1153.535156 730.984375 1131.722656 784.949219 1111.78125 839.335938 C 1091.886719 893.789062 1067.511719 946.402344 1042.976562 998.84375 C 1018.089844 1051.136719 991.617188 1102.648438 963.6875 1153.371094 C 991.023438 1102.324219 1016.882812 1050.519531 1041.121094 998.003906 C 1065.007812 945.339844 1088.769531 892.433594 1107.976562 837.90625 C 1127.230469 783.445312 1148.335938 729.4375 1159.40625 672.617188 C 1171.675781 616.195312 1179.464844 558.875 1182.566406 501.269531 L 1190.613281 501.757812 Z M 1190.648438 501.773438 " fill-opacity="1" fill-rule="nonzero"/></g></g></g><g clip-path="url(#a9fc539aff)"><g clip-path="url(#d2799c5319)"><g clip-path="url(#57ce61f2ec)"><path fill="#98a29d" d="M 1148.273438 365.632812 C 1143.332031 363.457031 1137.894531 362.507812 1132.738281 363.167969 C 1114.152344 365.511719 1105.800781 386.582031 1100.367188 400.332031 C 1090.113281 425.292969 1085.226562 450.390625 1078.574219 472.902344 C 1076.460938 479.933594 1073.910156 486.8125 1072.652344 493.925781 C 1067.773438 529.226562 1049.5 579.765625 1052.070312 640.328125 C 1081.105469 590.640625 1111.480469 558 1128.3125 526.46875 C 1131.972656 519.984375 1135.359375 513.214844 1138.5 506.273438 C 1145.621094 490.445312 1151.066406 474.472656 1155.445312 459.039062 C 1159.265625 445.652344 1162.558594 432.453125 1164.660156 419.628906 C 1166.59375 407.742188 1170.046875 394.246094 1164.597656 381.59375 C 1161.90625 375.289062 1156.097656 369.125 1148.289062 365.683594 Z M 1148.273438 365.632812 " fill-opacity="1" fill-rule="nonzero"/></g></g></g><g clip-path="url(#5809e47c71)"><g clip-path="url(#511e0480ac)"><g clip-path="url(#8be6e717b3)"><path fill="#b4b4b4" d="M 1133.640625 369.058594 C 1137.492188 365.289062 1139.914062 360.136719 1140.011719 353.980469 C 1140.9375 330.964844 1108.203125 309.660156 1086.277344 301.617188 C 1046.476562 284.867188 1006.691406 281.617188 972.308594 274.582031 C 961.355469 272.429688 950.195312 269.480469 939.101562 268.0625 C 883.667969 260.660156 814.074219 247.085938 734.074219 218.804688 C 795.066406 274.433594 859.347656 306.960938 906.636719 325.222656 C 916.738281 329.097656 927.019531 332.554688 937.394531 335.765625 C 960.957031 343.160156 985.726562 348.339844 1008.082031 352.675781 C 1027.597656 356.496094 1046.3125 360.433594 1063.273438 364.617188 C 1079.25 368.476562 1094.820312 375.675781 1110.730469 376.585938 C 1118.714844 377.035156 1127.554688 375.039062 1133.726562 369.0625 Z M 1133.640625 369.058594 " fill-opacity="1" fill-rule="nonzero"/></g></g></g><g clip-path="url(#5371b72bba)"><g clip-path="url(#f6410fe8b1)"><g clip-path="url(#1caa12c1bc)"><path fill="#98a29d" d="M 1305.316406 338.289062 C 1300.949219 335.136719 1295.871094 333.058594 1290.574219 332.871094 C 1270.96875 332.132812 1260.023438 356.714844 1256.203125 371.429688 C 1247.890625 399.203125 1248.378906 422.605469 1246.996094 446.699219 C 1246.628906 454.210938 1245.851562 462.011719 1246.746094 469.570312 C 1248.988281 488.183594 1251.628906 509.84375 1257.300781 531.910156 C 1262.234375 553.921875 1268.503906 576.3125 1267.472656 602.742188 C 1284.179688 582.453125 1291.835938 556.679688 1297.101562 535.683594 C 1301.976562 514.859375 1306.195312 496.808594 1309.722656 481.765625 L 1313.402344 462.734375 C 1315.929688 448.34375 1317.832031 433.917969 1319.046875 419.496094 C 1320.328125 407 1321.339844 395.46875 1321.832031 385.285156 C 1322.34375 375.539062 1324.203125 366.695312 1319.296875 355.800781 C 1316.765625 350.222656 1312.191406 343.445312 1305.28125 338.355469 Z M 1305.316406 338.289062 " fill-opacity="1" fill-rule="nonzero"/></g></g></g><g clip-path="url(#e092804d15)"><g clip-path="url(#9288e7ee0c)"><g clip-path="url(#eda9ec38f0)"><path fill="#b4b4b4" d="M 869.195312 717.222656 C 874.464844 716.195312 879.503906 713.628906 882.929688 709.152344 C 889.152344 701.1875 888.699219 688.648438 884.34375 678.003906 C 880.09375 667.164062 872.765625 658.203125 867.160156 651.425781 C 847.394531 627.546875 823.0625 610.394531 799.941406 594.328125 C 792.722656 589.328125 785.402344 583.96875 777.636719 580.296875 C 738.976562 560.824219 690.886719 545.683594 643.609375 506.476562 C 663.414062 564.820312 706.769531 602.488281 732.179688 626.3125 L 749.402344 641.175781 L 787.675781 672.691406 C 798.515625 681.335938 808.632812 690.445312 819.097656 698.289062 C 828.683594 705.78125 835.253906 712.914062 846.683594 715.757812 C 852.542969 717.277344 860.6875 718.757812 869.140625 717.238281 Z M 869.195312 717.222656 " fill-opacity="1" fill-rule="nonzero"/></g></g></g><g clip-path="url(#3830374186)"><g clip-path="url(#09ff656932)"><g clip-path="url(#e67af1824a)"><path fill="#98a29d" d="M 870.957031 703.445312 C 866.234375 700.871094 860.789062 699.535156 855.457031 699.886719 C 836.375 701.101562 824.140625 721.597656 814.839844 735.683594 C 798.058594 760.902344 784.984375 788.527344 772.5 816.085938 C 768.578125 824.703125 764.246094 833.523438 761.714844 842.726562 C 755.035156 865.605469 749.917969 891.996094 743.796875 918.175781 C 737.21875 944.410156 729.871094 972.371094 708.523438 997.246094 C 739.0625 986.71875 762.078125 961.296875 778.011719 939.128906 C 794.164062 916.394531 805.378906 895.726562 815.066406 879.671875 L 827 858.707031 L 853.113281 810.769531 C 860.351562 796.847656 867.65625 782.574219 873.691406 767.953125 C 879.214844 754.511719 887.09375 738.238281 884.523438 722.660156 C 883.265625 714.90625 878.4375 707.648438 870.972656 703.496094 Z M 870.957031 703.445312 " fill-opacity="1" fill-rule="nonzero"/></g></g></g><g clip-path="url(#05402b3d6f)"><g clip-path="url(#cd1d6cb529)"><g clip-path="url(#2eef59e6e4)"><path fill="#b4b4b4" d="M 634.890625 981.339844 C 637 976.363281 637.417969 970.722656 635.992188 965.234375 C 630.945312 945.476562 604.410156 934.105469 585.796875 926.195312 C 552.433594 911.707031 516.53125 902.820312 480.675781 896.441406 C 469.433594 894.429688 457.808594 892.253906 446.351562 892.054688 C 417.492188 891.15625 385.9375 894.660156 355.125 895.699219 C 324.601562 896.210938 290.082031 893.988281 260.363281 870.128906 C 276.0625 904.472656 312.921875 924.421875 343.621094 934.203125 C 375.167969 944.316406 402.542969 948.175781 423.339844 953.335938 L 450.28125 959.484375 C 470.632812 964.273438 490.75 969.574219 510.761719 975.078125 C 528.070312 979.792969 545.765625 984.589844 563.222656 989.34375 C 579.417969 993.28125 598.933594 999.84375 615.828125 996.277344 C 624.238281 994.519531 631.582031 989.222656 634.886719 981.339844 Z M 634.890625 981.339844 " fill-opacity="1" fill-rule="nonzero"/></g></g></g><g clip-path="url(#b7d40b28c2)"><g clip-path="url(#32585851a2)"><g clip-path="url(#6623440190)"><path fill="#b4b4b4" d="M 827.132812 1002.472656 C 824.332031 997.863281 820.617188 993.824219 816.539062 991.089844 C 801.847656 981.332031 786.378906 989.910156 775.222656 995.445312 C 755.046875 1005.191406 736.945312 1018.765625 719.4375 1032.578125 C 713.902344 1036.84375 708.125 1041.238281 703.542969 1046.582031 C 681.007812 1073.636719 656.207031 1110.59375 637.640625 1157.417969 C 679.707031 1133.675781 713.476562 1114.628906 737.640625 1101.015625 L 752.394531 1092.257812 C 763.40625 1085.488281 774.363281 1078.820312 784.921875 1071.632812 C 794.109375 1065.539062 803.324219 1059.078125 811.765625 1051.765625 C 819.460938 1044.949219 829.660156 1037.394531 832 1024.445312 C 833.136719 1017.953125 831.589844 1009.785156 827.183594 1002.457031 Z M 827.132812 1002.472656 " fill-opacity="1" fill-rule="nonzero"/></g></g></g><g clip-path="url(#ad1aef17c4)"><g clip-path="url(#fa654b0462)"><g clip-path="url(#955c368b38)"><path fill="#98a29d" d="M 840.421875 999.386719 C 835.652344 1001.929688 831.421875 1005.449219 828.421875 1009.386719 C 817.726562 1023.4375 824.464844 1038.59375 827.679688 1050.152344 C 833.558594 1070.664062 841.726562 1090.277344 848.546875 1110.316406 C 850.75 1116.570312 852.351562 1123.226562 855.613281 1129.117188 C 871.375 1158.695312 891.242188 1196.078125 914.097656 1242.289062 C 924.164062 1192.503906 922.6875 1149.671875 919.09375 1119.699219 C 918.324219 1113.324219 917.304688 1106.941406 916.042969 1100.683594 C 913.332031 1086.3125 909.550781 1072.171875 904.835938 1058.335938 C 900.640625 1046.453125 895.792969 1034.429688 889.207031 1023.476562 C 883.28125 1013.433594 876.105469 1000.65625 862.796875 996.535156 C 856.203125 994.488281 847.953125 995.390625 840.40625 999.417969 Z M 840.421875 999.386719 " fill-opacity="1" fill-rule="nonzero"/></g></g></g><g clip-path="url(#2143863700)"><g clip-path="url(#bfe8971654)"><g clip-path="url(#15ee9c6087)"><path fill="#b4b4b4" d="M 1144.53125 729.421875 C 1143.742188 724.105469 1141.683594 719 1138.183594 715.125 C 1125.546875 700.570312 1099.828125 708.539062 1085.503906 716.589844 C 1057.109375 732.613281 1034.207031 754.367188 1016.242188 781.683594 C 996.308594 811.910156 983.207031 847.917969 958.835938 875.039062 C 954.683594 879.675781 939.945312 897.140625 933.269531 896.5 C 959.882812 899 986.367188 887.894531 1005.925781 875.5 C 1025.933594 862.917969 1040.878906 849.167969 1052.730469 838.101562 L 1066.980469 823.972656 L 1096.675781 794.863281 C 1104.5625 787.933594 1112.574219 780.859375 1120.546875 773.851562 C 1127.597656 767.667969 1135.84375 762.988281 1141.207031 751.730469 C 1143.910156 746.21875 1145.699219 737.898438 1144.496094 729.488281 Z M 1144.53125 729.421875 " fill-opacity="1" fill-rule="nonzero"/></g></g></g><g clip-path="url(#7997459f0a)"><g clip-path="url(#3b8ad247a9)"><g clip-path="url(#fb27e609ff)"><path fill="#98a29d" d="M 1146.703125 742.425781 C 1144.839844 747.496094 1144.324219 753.085938 1145.035156 758.226562 C 1147.652344 776.234375 1163.21875 785.566406 1172.757812 795.347656 C 1189.6875 812.238281 1205.058594 830.507812 1215.230469 851.472656 C 1218.433594 858.101562 1221.027344 865.683594 1224.980469 872.976562 C 1235.070312 891.027344 1245.1875 915.472656 1263.160156 941.542969 C 1280.804688 966.492188 1309.761719 993.789062 1346.453125 995.480469 C 1316.714844 977.484375 1307.308594 950.082031 1300.867188 927.851562 C 1295.117188 905.140625 1292.949219 883.394531 1289.160156 864.238281 C 1287.628906 856.121094 1285.632812 847.75 1283.085938 839.210938 C 1277.457031 819.734375 1267.773438 799.292969 1254.992188 782.09375 C 1243.988281 767.058594 1230.382812 753.261719 1214.699219 742.964844 C 1200.660156 733.347656 1181.097656 723.246094 1164.441406 726.769531 C 1156.09375 728.566406 1149.59375 734.363281 1146.6875 742.375 Z M 1146.703125 742.425781 " fill-opacity="1" fill-rule="nonzero"/></g></g></g><g clip-path="url(#f760c18e81)"><g clip-path="url(#c335e0dbc9)"><g clip-path="url(#fa6fb162da)"><path fill="#98a29d" d="M 643.628906 991.800781 C 638.6875 989.621094 633.125 988.90625 627.789062 989.8125 C 608.839844 992.984375 598.097656 1014.511719 589.367188 1029.203125 C 573.777344 1055.542969 561.042969 1083.5625 547.902344 1111.152344 C 543.792969 1119.792969 539.191406 1128.554688 536.226562 1137.695312 C 521.441406 1183.320312 504.765625 1241.070312 489.546875 1309.597656 C 533.585938 1257.371094 565.785156 1211.160156 587.628906 1177.429688 C 592.257812 1170.269531 596.671875 1162.949219 601.035156 1155.644531 C 610.964844 1138.988281 620.398438 1122.066406 629.136719 1104.761719 C 636.667969 1089.839844 643.996094 1074.339844 649.738281 1058.445312 C 654.996094 1043.917969 662.246094 1025.972656 658.660156 1010.054688 C 656.871094 1002.097656 651.472656 995.171875 643.648438 991.765625 Z M 643.628906 991.800781 " fill-opacity="1" fill-rule="nonzero"/></g></g></g><g clip-path="url(#6addd3cdd4)"><g clip-path="url(#7c2be37861)"><g clip-path="url(#d75de2d7b4)"><path fill="#8f8b81" d="M 631.625 990.402344 C 630.902344 985.039062 628.238281 979.945312 623.882812 975.988281 C 608.324219 961.601562 577.128906 965.386719 555.21875 968.019531 C 515.769531 972.40625 476.929688 982.996094 439.121094 995.304688 C 427.316406 999.199219 414.976562 1003.058594 403.804688 1008.625 C 375.816406 1022.171875 345.621094 1040.640625 315.242188 1060.078125 C 284.457031 1078.996094 251.929688 1099.707031 210.445312 1109.328125 C 251.40625 1116.476562 292.246094 1107.960938 325.539062 1099.0625 C 358.113281 1089.515625 386.609375 1081.171875 410.40625 1074.214844 L 440.089844 1065.964844 L 507.617188 1048.722656 C 527.0625 1043.933594 546.949219 1039.042969 566.597656 1034.195312 C 584.515625 1029.300781 607.113281 1024.859375 621.5 1013.074219 C 628.675781 1007.21875 632.792969 998.875 631.65625 990.417969 Z M 631.625 990.402344 " fill-opacity="1" fill-rule="nonzero"/></g></g></g><g clip-path="url(#514a47b5f1)"><g clip-path="url(#2110d099a1)"><g clip-path="url(#194c1dd32f)"><path fill="#8f8b81" d="M 1134.050781 726.882812 C 1129.136719 729.132812 1124.914062 732.957031 1122.054688 737.65625 C 1111.886719 754.4375 1120.417969 777.464844 1124.003906 794.796875 C 1130.921875 825.511719 1138.941406 856.015625 1144.285156 886.945312 C 1146.082031 896.621094 1146.90625 906.75 1149.585938 916.222656 C 1161.816406 963.925781 1174.398438 1025.0625 1179.832031 1099.953125 C 1207.019531 1031.949219 1213.996094 968.488281 1214.34375 923.648438 C 1214.410156 914.089844 1214.210938 904.46875 1213.5 894.914062 C 1212.316406 873.105469 1209.175781 851.34375 1204.777344 829.839844 C 1200.664062 811.363281 1195.601562 792.496094 1188.136719 774.894531 C 1181.515625 758.734375 1172.902344 738.449219 1158.050781 728.988281 C 1150.707031 724.21875 1141.886719 723.265625 1134.117188 726.832031 Z M 1134.050781 726.882812 " fill-opacity="1" fill-rule="nonzero"/></g></g></g><g clip-path="url(#d25cda1e0e)"><g clip-path="url(#ed0f11b3b8)"><g clip-path="url(#61db535c82)"><path fill="#8f8b81" d="M 832.714844 1001.742188 C 827.34375 1001.21875 821.746094 1002.449219 816.863281 1005.359375 C 799.632812 1015.679688 794.535156 1042.339844 788.996094 1061.082031 L 761.332031 1162.675781 C 758.25 1173.289062 754.6875 1184.160156 752.6875 1195.066406 C 742.773438 1249.601562 730.03125 1319.003906 720.355469 1400.316406 C 760.644531 1331.78125 789.703125 1272.851562 808.628906 1229.222656 L 820.035156 1201.117188 C 828.265625 1179.640625 835.738281 1157.664062 841.945312 1135.253906 C 847.339844 1115.914062 852.039062 1095.722656 854.554688 1075.457031 C 856.953125 1056.972656 859.929688 1033.574219 852.136719 1016.734375 C 848.273438 1008.332031 841.183594 1002.628906 832.695312 1001.773438 Z M 832.714844 1001.742188 " fill-opacity="1" fill-rule="nonzero"/></g></g></g><g clip-path="url(#14ee0ba947)"><g clip-path="url(#c79da09a13)"><g clip-path="url(#1adabf3422)"><path fill="#8f8b81" d="M 880.910156 723.945312 C 882.957031 718.933594 883.304688 713.339844 881.628906 707.84375 C 875.753906 688.109375 847.09375 676.78125 827.292969 670.664062 C 791.613281 658.382812 754.683594 653.347656 719.273438 648.667969 C 708.097656 647.164062 696.878906 645.425781 685.757812 645.234375 C 630.605469 643.6875 564.457031 648.566406 487.339844 629.695312 C 548.800781 678.253906 617.636719 694.628906 661.761719 706.195312 L 690.644531 712.632812 L 755.136719 725.183594 C 773.070312 728.527344 791.382812 731.945312 809.464844 735.328125 C 825.972656 737.976562 845.453125 743.105469 861.917969 739.308594 C 870.242188 737.242188 877.589844 731.777344 880.84375 723.910156 Z M 880.910156 723.945312 " fill-opacity="1" fill-rule="nonzero"/></g></g></g><g clip-path="url(#c5b49d96fe)"><g clip-path="url(#9c846520ff)"><g clip-path="url(#e6b9f5d5d8)"><path fill="#8f8b81" d="M 1139.289062 350.117188 C 1135.414062 346.375 1130.300781 343.890625 1124.757812 343.054688 C 1105.023438 340.191406 1085.636719 358.164062 1070.800781 369.746094 C 1044.328125 390.585938 1019.515625 413.570312 994.078125 435.574219 C 986.15625 442.484375 977.570312 449.203125 970.429688 456.964844 C 934.492188 495.570312 889.851562 544.253906 837.902344 602.027344 C 907.378906 572.398438 961.796875 540.214844 999.46875 515.496094 C 1007.464844 510.253906 1015.351562 504.738281 1023.089844 499.101562 C 1040.8125 486.390625 1058.003906 472.921875 1074.628906 458.757812 C 1088.917969 446.445312 1103.195312 433.445312 1115.980469 419.332031 C 1127.695312 406.476562 1142.695312 390.65625 1146.050781 373.332031 C 1147.75 364.707031 1145.464844 356.007812 1139.289062 350.117188 Z M 1139.289062 350.117188 " fill-opacity="1" fill-rule="nonzero"/></g></g></g></svg>